<?xml version="1.0" encoding="UTF-8" standalone="no"?>
<svg
   xmlns:dc="http://purl.org/dc/elements/1.1/"
   xmlns:cc="http://creativecommons.org/ns#"
   xmlns:rdf="http://www.w3.org/1999/02/22-rdf-syntax-ns#"
   xmlns:svg="http://www.w3.org/2000/svg"
   xmlns="http://www.w3.org/2000/svg"
   xmlns:sodipodi="http://sodipodi.sourceforge.net/DTD/sodipodi-0.dtd"
   xmlns:inkscape="http://www.inkscape.org/namespaces/inkscape"
   width="250"
   height="250"
   viewBox="0 0 66.145831 66.145835"
   version="1.1"
   id="svg726"
   inkscape:version="1.0.1 (3bc2e813f5, 2020-09-07)"
   sodipodi:docname="Narweparapagina.svg">
  <defs
     id="defs720">
    <clipPath
       clipPathUnits="userSpaceOnUse"
       id="clipPath5689">
      <path
         d="M 0,0 H 256 V 142 H 0 Z"
         id="path5691"
         inkscape:connector-curvature="0" />
    </clipPath>
  </defs>
  <sodipodi:namedview
     id="base"
     pagecolor="#ffffff"
     bordercolor="#666666"
     borderopacity="1.0"
     inkscape:pageopacity="0.0"
     inkscape:pageshadow="2"
     inkscape:zoom="0.49497475"
     inkscape:cx="400"
     inkscape:cy="393.50995"
     inkscape:document-units="px"
     inkscape:current-layer="g433"
     inkscape:document-rotation="0"
     showgrid="false"
     inkscape:window-width="1258"
     inkscape:window-height="728"
     inkscape:window-x="50"
     inkscape:window-y="0"
     inkscape:window-maximized="0"
     units="px" />
  <metadata
     id="metadata723">
    <rdf:RDF>
      <cc:Work
         rdf:about="">
        <dc:format>image/svg+xml</dc:format>
        <dc:type
           rdf:resource="http://purl.org/dc/dcmitype/StillImage" />
        <dc:title></dc:title>
      </cc:Work>
    </rdf:RDF>
  </metadata>
  <g
     inkscape:label="Capa 1"
     inkscape:groupmode="layer"
     id="layer1">
    <g
       id="g433"
       transform="matrix(0.75800627,0,0,0.75800627,12.856996,71.271263)"
       style="display:inline;stroke-width:1.31925">
      <g
         id="g82"
         transform="matrix(0.38882161,0,0,0.38882161,-15.750388,-101.59509)"
         style="stroke-width:3.39295">
        <g
           id="g1232-5-5"
           transform="matrix(0.12294506,0.00682529,-0.0068253,0.12294514,-106.66123,59.478871)"
           style="display:inline;fill:#afe9dd;stroke:none;stroke-width:15.5685;stroke-miterlimit:4;stroke-dasharray:none;stroke-opacity:1">
          <path
             id="path1210-2-0"
             style="fill:#e5d5ff;stroke-width:40.3678"
             d="m 1696.028,-352.67541 c -85.8944,23.07514 -352.5372,431.325396 -344.5453,575.29264 7.9923,143.96783 311.5439,248.17668 399.465,261.60254 85.8947,-23.07524 362.2441,-176.15649 354.2517,-320.1243 -7.9928,-143.967186 -321.2507,-503.34508 -409.1714,-516.77088 z"
             sodipodi:nodetypes="ccccc" />
          <path
             id="path1222-0-6"
             style="fill:#e5d5ff;stroke-width:40.3678"
             d="m 1797.434,1321.5832 c -87.9208,-13.4258 -414.9294,-357.12803 -422.9222,-501.09519 -7.9925,-143.96789 298.9746,-313.66114 384.8693,-336.73642 87.9211,13.42592 427.2583,158.00796 435.2507,301.97576 7.9919,143.96722 -311.3035,512.78065 -397.1978,535.85585 z"
             sodipodi:nodetypes="ccccc" />
          <path
             id="path1224-7-4"
             style="fill:#e5d5ff;stroke-width:40.3678"
             d="m 914.05202,539.13941 c 23.07516,85.89435 447.81238,315.96614 591.77978,307.97425 143.9679,-7.99229 231.6901,-274.97285 245.1159,-362.89389 C 1727.8725,398.32512 1609.254,187.69831 1465.2861,195.6907 1321.3188,203.6835 927.47783,451.21877 914.05202,539.13941 Z"
             sodipodi:nodetypes="ccccc" />
          <path
             id="path1226-2-8"
             style="fill:#e5d5ff;stroke-width:40.3678"
             d="m 2588.7797,446.16697 c -13.4258,87.9207 -424.6466,338.10982 -568.614,346.1026 -143.9679,7.99247 -246.1428,-222.15511 -269.218,-308.0498 13.4258,-87.92101 89.3154,-331.25496 233.2834,-339.2473 143.9673,-7.9919 581.4734,215.3002 604.5486,301.1945 z"
             sodipodi:nodetypes="ccccc" />
        </g>
        <g
           id="g1286"
           transform="translate(2.4779889,7.954841)"
           style="stroke-width:3.39295">
          <g
             id="g378"
             transform="translate(1.5849922,21.059009)"
             style="stroke-width:3.39295">
            <ellipse
               style="display:inline;fill:#440055;fill-opacity:1;stroke:none;stroke-width:1.91702;stroke-miterlimit:4;stroke-dasharray:none;stroke-opacity:1"
               id="ellipse1054-7-1-3"
               cx="-148.85779"
               cy="33.176479"
               rx="1.827741"
               ry="15.276164"
               transform="matrix(-0.31751197,-0.94825426,0.94807732,-0.31803994,0,0)" />
            <ellipse
               style="display:inline;fill:#440055;fill-opacity:1;stroke:none;stroke-width:1.91702;stroke-miterlimit:4;stroke-dasharray:none;stroke-opacity:1"
               id="ellipse1056-8-9-3"
               cx="-80.918152"
               cy="161.55849"
               rx="1.827741"
               ry="15.276166"
               transform="matrix(0.33847639,-0.94097489,0.94116318,0.33795246,0,0)"
               inkscape:transform-center-x="7.4949767"
               inkscape:transform-center-y="4.7912081" />
            <ellipse
               style="display:inline;fill:#440055;fill-opacity:1;stroke:none;stroke-width:1.91702;stroke-miterlimit:4;stroke-dasharray:none;stroke-opacity:1"
               id="ellipse1058-7-7-8"
               cx="-153.35939"
               cy="-22.729067"
               rx="1.8277401"
               ry="15.276172"
               transform="matrix(-0.83551816,-0.54946284,0.54899695,-0.83582435,0,0)"
               inkscape:transform-center-x="-0.94810382"
               inkscape:transform-center-y="-0.84616683" />
            <ellipse
               style="display:inline;fill:#440055;fill-opacity:1;stroke:none;stroke-width:1.91702;stroke-miterlimit:4;stroke-dasharray:none;stroke-opacity:1"
               id="ellipse1060-1-6-2"
               cx="103.2443"
               cy="146.66661"
               rx="1.8277397"
               ry="15.276176"
               transform="matrix(0.99994328,0.0106508,-0.01009336,0.99994906,0,0)" />
            <ellipse
               style="display:inline;fill:#ab37c8;fill-opacity:1;stroke:none;stroke-width:1.91702;stroke-miterlimit:4;stroke-dasharray:none;stroke-opacity:1"
               id="ellipse1062-7-7-6"
               cx="69.578835"
               cy="137.53145"
               rx="3.5075135"
               ry="3.3833859"
               transform="rotate(-26.498579)" />
            <ellipse
               style="display:inline;fill:#ab37c8;fill-opacity:1;stroke:none;stroke-width:1.91702;stroke-miterlimit:4;stroke-dasharray:none;stroke-opacity:1"
               id="ellipse1066-3-5-6"
               cx="19.289188"
               cy="189.53583"
               rx="3.5075135"
               ry="3.3833859"
               transform="rotate(-26.498579)" />
            <ellipse
               style="display:inline;fill:#ab37c8;fill-opacity:1;stroke:none;stroke-width:1.91702;stroke-miterlimit:4;stroke-dasharray:none;stroke-opacity:1"
               id="ellipse1068-4-8-9"
               cx="62.718994"
               cy="182.54387"
               rx="3.5075135"
               ry="3.3833859"
               transform="rotate(-26.498579)" />
            <g
               id="g1112-9-1"
               transform="matrix(0.12127165,0.0499363,-0.04993627,0.12127173,115.24578,83.52727)"
               style="display:inline;fill:#216778;stroke:none;stroke-width:14.6171;stroke-miterlimit:4;stroke-dasharray:none;stroke-opacity:1">
              <path
                 id="path1050-1-2-3"
                 style="fill:#5a2ca0;fill-opacity:1;stroke:none;stroke-width:14.6171;stroke-miterlimit:4;stroke-dasharray:none;stroke-opacity:1"
                 d="m -43.161511,331.94702 c 0,0 -91.617339,69.03548 -158.644439,69.03551 -67.02645,-7.8e-4 -141.49512,-69.03551 -141.49512,-69.03551 0,0 74.46867,-69.03473 141.49512,-69.03551 67.0271,3e-5 158.644439,69.03551 158.644439,69.03551 z" />
              <path
                 id="path1070-0-2-0"
                 style="fill:#9955ff;fill-opacity:1;stroke:none;stroke-width:14.6171;stroke-miterlimit:4;stroke-dasharray:none;stroke-opacity:1"
                 d="m -217.47682,331.94702 c 0,0 53.20961,16.00032 92.13766,16.00032 38.927679,-1.8e-4 82.177649,-16.00032 82.177649,-16.00032 0,0 -43.24997,-16.00014 -82.177649,-16.00032 -38.92806,0 -92.13766,16.00032 -92.13766,16.00032 z" />
            </g>
            <g
               id="g1108-2-5"
               transform="matrix(0.08534069,0.09958626,-0.0995862,0.08534076,134.41101,26.390682)"
               inkscape:transform-center-x="-8.2018688"
               inkscape:transform-center-y="-1.8259677"
               style="display:inline;fill:#5a2ca0;stroke:none;stroke-width:14.6171;stroke-miterlimit:4;stroke-dasharray:none;stroke-opacity:1">
              <path
                 id="path1052-6-4-8"
                 style="fill:#5a2ca0;fill-opacity:1;stroke:none;stroke-width:14.6171;stroke-miterlimit:4;stroke-dasharray:none;stroke-opacity:1"
                 d="m 466.18683,681.33421 c 0,0 91.61734,-69.03548 158.64444,-69.03551 67.02645,7.8e-4 141.49512,69.03551 141.49512,69.03551 0,0 -74.46867,69.03473 -141.49512,69.03551 -67.0271,-3e-5 -158.64444,-69.03551 -158.64444,-69.03551 z" />
              <path
                 id="path1072-0-5-1"
                 style="fill:#9955ff;fill-opacity:1;stroke:none;stroke-width:14.6171;stroke-miterlimit:4;stroke-dasharray:none;stroke-opacity:1"
                 d="m 466.18683,681.33421 c 0,0 53.2096,16.00032 92.13766,16.00032 38.92768,-1.8e-4 82.17768,-16.00032 82.17768,-16.00032 0,0 -43.25,-16.00014 -82.17768,-16.00032 -38.92806,0 -92.13766,16.00032 -92.13766,16.00032 z" />
            </g>
            <g
               id="g1118-4-0"
               transform="matrix(0.0987858,0.08626596,-0.08626604,0.09878579,125.98531,36.816514)"
               style="display:inline;fill:#5a2ca0;stroke:none;stroke-width:14.6171;stroke-miterlimit:4;stroke-dasharray:none;stroke-opacity:1">
              <path
                 id="path1048-5-1-8"
                 style="fill:#5a2ca0;fill-opacity:1;stroke:none;stroke-width:14.6171;stroke-miterlimit:4;stroke-dasharray:none;stroke-opacity:1"
                 d="m 307.77332,984.91246 c 0,0 -69.03548,-91.61735 -69.03551,-158.64445 7.8e-4,-67.02645 69.03551,-141.49512 69.03551,-141.49512 0,0 69.03473,74.46867 69.03551,141.49512 -3e-5,67.0271 -69.03551,158.64445 -69.03551,158.64445 z" />
              <path
                 id="path1074-8-5-6"
                 style="fill:#9955ff;fill-opacity:1;stroke:none;stroke-width:14.6171;stroke-miterlimit:4;stroke-dasharray:none;stroke-opacity:1"
                 d="m 307.77332,684.77289 c 0,0 -16.00032,53.2096 -16.00032,92.13766 1.8e-4,38.92768 16.00032,82.17765 16.00032,82.17765 0,0 16.00014,-43.24997 16.00032,-82.17765 0,-38.92806 -16.00032,-92.13766 -16.00032,-92.13766 z" />
            </g>
            <g
               id="g1100-0-1"
               transform="matrix(0.13112903,0.00237062,-0.00237063,0.13112914,64.558123,115.14051)"
               style="display:inline;fill:#5a2ca0;stroke:none;stroke-width:14.6171;stroke-miterlimit:4;stroke-dasharray:none;stroke-opacity:1">
              <path
                 id="path1046-0-7-4"
                 style="fill:#5a2ca0;fill-opacity:1;stroke:none;stroke-width:14.6171;stroke-miterlimit:4;stroke-dasharray:none;stroke-opacity:1"
                 d="m 279.68673,-303.53153 c 0,0 -69.03548,91.61735 -69.03551,158.64445 7.8e-4,67.026451 69.03551,141.4951212 69.03551,141.4951212 0,0 69.03473,-74.4686702 69.03551,-141.4951212 -3e-5,-67.0271 -69.03551,-158.64445 -69.03551,-158.64445 z" />
              <path
                 id="path1076-1-5-3"
                 style="fill:#9955ff;fill-opacity:1;stroke:none;stroke-width:14.6171;stroke-miterlimit:4;stroke-dasharray:none;stroke-opacity:1"
                 d="m 279.68673,-177.70727 c 0,0 -16.00032,53.2096 -16.00032,92.137661 1.8e-4,38.92768 16.00032,82.1776502 16.00032,82.1776502 0,0 16.00014,-43.2499702 16.00032,-82.1776502 0,-38.928061 -16.00032,-92.137661 -16.00032,-92.137661 z" />
            </g>
            <ellipse
               style="display:inline;fill:#440055;fill-opacity:1;stroke:none;stroke-width:1.91702;stroke-miterlimit:4;stroke-dasharray:none;stroke-opacity:1"
               id="ellipse1094-6-1"
               cx="-9.5513601"
               cy="-135.90555"
               rx="1.8277397"
               ry="15.276176"
               transform="matrix(-0.81033229,0.58597063,-0.58642217,-0.81000558,0,0)" />
            <ellipse
               style="display:inline;fill:#ab37c8;fill-opacity:1;stroke:none;stroke-width:1.91702;stroke-miterlimit:4;stroke-dasharray:none;stroke-opacity:1"
               id="ellipse1096-5-6"
               cx="-2.8498595"
               cy="150.08418"
               rx="3.5075135"
               ry="3.3833859"
               transform="rotate(-26.498579)" />
            <ellipse
               style="display:inline;fill:#ab37c8;fill-opacity:1;stroke:none;stroke-width:1.91702;stroke-miterlimit:4;stroke-dasharray:none;stroke-opacity:1"
               id="ellipse1064-9-0-0"
               cx="29.293056"
               cy="118.10149"
               rx="3.5075135"
               ry="3.3833859"
               transform="rotate(-26.498579)" />
            <g
               id="g1104-3-5"
               transform="matrix(0.05467074,0.11921231,-0.11921221,0.05467078,104.8839,10.849363)"
               style="display:inline;fill:#5a2ca0;stroke:none;stroke-width:14.6171;stroke-miterlimit:4;stroke-dasharray:none;stroke-opacity:1">
              <path
                 id="path1055-1-4"
                 style="fill:#5a2ca0;fill-opacity:1;stroke:none;stroke-width:14.6171;stroke-miterlimit:4;stroke-dasharray:none;stroke-opacity:1"
                 d="m 783.3202,9.7439642 c 0,0 -69.03548,91.6173458 -69.03551,158.6444458 7.8e-4,67.02645 69.03551,141.49512 69.03551,141.49512 0,0 69.03473,-74.46867 69.03551,-141.49512 C 852.35568,101.36131 783.3202,9.7439642 783.3202,9.7439642 Z" />
              <path
                 id="path1053-1-8"
                 style="fill:#9955ff;fill-opacity:1;stroke:none;stroke-width:14.6171;stroke-miterlimit:4;stroke-dasharray:none;stroke-opacity:1"
                 d="m 783.3202,135.56822 c 0,0 -16.00032,53.2096 -16.00032,92.13766 1.8e-4,38.92768 16.00032,82.17765 16.00032,82.17765 0,0 16.00014,-43.24997 16.00032,-82.17765 0,-38.92806 -16.00032,-92.13766 -16.00032,-92.13766 z" />
            </g>
            <ellipse
               style="display:inline;fill:#22002b;fill-opacity:1;stroke:none;stroke-width:1.91702;stroke-miterlimit:4;stroke-dasharray:none;stroke-opacity:1"
               id="circle1078-1-4-4"
               cx="35.868961"
               cy="156.03918"
               transform="rotate(-26.498579)"
               rx="11.168236"
               ry="11.168239" />
          </g>
        </g>
        <text
           xml:space="preserve"
           style="font-style:normal;font-weight:normal;font-size:10.5833px;line-height:1.25;font-family:sans-serif;display:inline;fill:#22002b;fill-opacity:1;stroke:none;stroke-width:3.00037;stroke-miterlimit:4;stroke-dasharray:none;stroke-opacity:1"
           x="104.15942"
           y="94.719429"
           id="text1299-0-0"><tspan
             sodipodi:role="line"
             id="tspan1297-8-7"
             x="104.15942"
             y="94.719429"
             style="font-style:normal;font-variant:normal;font-weight:normal;font-stretch:normal;font-size:23.9889px;font-family:Forte;-inkscape-font-specification:'Forte, Normal';font-variant-ligatures:normal;font-variant-caps:normal;font-variant-numeric:normal;font-variant-east-asian:normal;text-align:center;text-anchor:middle;fill:#22002b;stroke-width:3.00037">Narwe</tspan><tspan
             sodipodi:role="line"
             x="104.15942"
             y="113.15938"
             style="font-style:normal;font-variant:normal;font-weight:normal;font-stretch:normal;font-size:17.6389px;font-family:Forte;-inkscape-font-specification:'Forte, Normal';font-variant-ligatures:normal;font-variant-caps:normal;font-variant-numeric:normal;font-variant-east-asian:normal;text-align:center;text-anchor:middle;fill:#22002b;stroke-width:3.00037"
             id="tspan1301-7-0" /></text>
      </g>
    </g>
  </g>
</svg>
